<svg width="327" height="256" viewBox="0 0 327 256" fill="none" xmlns="http://www.w3.org/2000/svg">
<path d="M297.656 233.701C291.387 240.393 284.204 246.172 276.319 250.866C276.138 250.977 275.954 251.081 275.77 251.188L263.004 239.922C263.138 239.798 263.287 239.659 263.447 239.505C272.958 230.499 320.178 167.532 323.325 152.198C323.107 153.476 326.164 203.572 297.656 233.701Z" fill="#F0F0F0"/>
<path d="M278.782 253.039C278.541 253.097 278.295 253.151 278.049 253.2L268.472 244.747C268.659 244.682 268.878 244.605 269.128 244.519C273.237 243.068 285.475 238.689 297.655 233.7C310.741 228.338 323.765 222.279 326.566 218.398C325.965 219.3 307.457 246.646 278.782 253.039Z" fill="#F0F0F0"/>
<path d="M297.479 67.0457H296.115V29.7908C296.115 26.9592 295.555 24.1554 294.469 21.5394C293.382 18.9233 291.789 16.5463 289.781 14.5441C287.773 12.5419 285.389 10.9536 282.766 9.87002C280.142 8.78642 277.33 8.2287 274.491 8.2287H195.334C192.495 8.22869 189.683 8.78641 187.059 9.87C184.436 10.9536 182.052 12.5418 180.044 14.5441C178.036 16.5463 176.443 18.9233 175.356 21.5393C174.27 24.1553 173.71 26.9592 173.71 29.7907V234.174C173.71 237.005 174.27 239.809 175.356 242.425C176.443 245.041 178.036 247.418 180.044 249.421C182.052 251.423 184.436 253.011 187.059 254.095C189.683 255.178 192.495 255.736 195.334 255.736H274.491C277.33 255.736 280.142 255.178 282.766 254.095C285.389 253.011 287.773 251.423 289.781 249.421C291.789 247.418 293.382 245.041 294.469 242.425C295.555 239.809 296.115 237.006 296.115 234.174V93.5643H297.479V67.0457Z" fill="#3F3D56"/>
<path d="M291.512 29.9389V234.025C291.512 236.139 291.094 238.233 290.282 240.187C289.47 242.14 288.281 243.915 286.781 245.41C285.281 246.905 283.5 248.091 281.541 248.9C279.581 249.709 277.481 250.124 275.361 250.124H195.823C193.703 250.124 191.603 249.707 189.645 248.898C187.686 248.089 185.906 246.904 184.406 245.409C182.907 243.914 181.718 242.139 180.907 240.186C180.095 238.232 179.678 236.139 179.678 234.025V29.9389C179.678 27.8247 180.095 25.7312 180.907 23.7779C181.718 21.8246 182.907 20.0498 184.406 18.5548C185.906 17.0599 187.686 15.874 189.645 15.065C191.603 14.2561 193.703 13.8397 195.823 13.8399H205.475C205.002 15.0016 204.821 16.2615 204.951 17.509C205.08 18.7564 205.514 19.9531 206.216 20.9938C206.918 22.0345 207.865 22.8873 208.975 23.4772C210.085 24.0671 211.323 24.3761 212.581 24.3769H257.927C259.185 24.3781 260.425 24.0705 261.536 23.4811C262.647 22.8917 263.595 22.0388 264.297 20.9975C264.999 19.9562 265.434 18.7586 265.562 17.5103C265.69 16.262 265.508 15.0015 265.032 13.8399H275.361C277.481 13.8391 279.581 14.255 281.541 15.0637C283.5 15.8724 285.281 17.0581 286.781 18.5531C288.281 20.0482 289.47 21.8232 290.282 23.7768C291.094 25.7304 291.512 27.8243 291.512 29.9389Z" fill="white"/>
<path d="M266.77 135.993H196.859C195.635 135.991 194.461 135.506 193.595 134.642C192.729 133.779 192.242 132.608 192.241 131.387V129.095C192.242 127.874 192.729 126.703 193.595 125.84C194.461 124.977 195.635 124.491 196.859 124.49H266.77C267.995 124.491 269.169 124.977 270.035 125.84C270.901 126.703 271.388 127.874 271.389 129.095V131.387C271.388 132.608 270.901 133.779 270.035 134.642C269.169 135.506 267.995 135.991 266.77 135.993Z" fill="#F0F0F0"/>
<path d="M266.77 155.753H196.859C195.635 155.752 194.461 155.266 193.595 154.403C192.729 153.54 192.242 152.369 192.241 151.148V148.856C192.242 147.635 192.729 146.464 193.595 145.601C194.461 144.737 195.635 144.251 196.859 144.25H266.77C267.995 144.251 269.169 144.737 270.035 145.601C270.901 146.464 271.388 147.635 271.389 148.856V151.148C271.388 152.369 270.901 153.54 270.035 154.403C269.169 155.266 267.995 155.752 266.77 155.753Z" fill="#F0F0F0"/>
<path d="M270.268 131.573H200.357C199.071 131.572 197.838 131.062 196.929 130.155C196.02 129.249 195.509 128.02 195.507 126.738V124.445C195.509 123.163 196.02 121.934 196.929 121.028C197.838 120.121 199.071 119.611 200.357 119.61H270.268C271.553 119.611 272.786 120.121 273.695 121.028C274.604 121.934 275.116 123.163 275.117 124.445V126.738C275.116 128.02 274.604 129.249 273.695 130.155C272.786 131.062 271.553 131.572 270.268 131.573ZM200.357 120.531C199.316 120.532 198.318 120.945 197.582 121.678C196.846 122.412 196.432 123.407 196.431 124.445V126.738C196.432 127.775 196.846 128.771 197.582 129.504C198.318 130.238 199.316 130.651 200.357 130.652H270.268C271.308 130.651 272.306 130.238 273.042 129.504C273.778 128.771 274.192 127.775 274.193 126.738V124.445C274.192 123.407 273.778 122.412 273.042 121.678C272.306 120.945 271.308 120.532 270.268 120.531H200.357Z" fill="#3F3D56"/>
<path d="M270.268 151.334H200.357C199.071 151.332 197.838 150.822 196.929 149.916C196.02 149.009 195.509 147.78 195.507 146.498V144.206C195.509 142.924 196.02 141.695 196.929 140.788C197.838 139.882 199.071 139.372 200.357 139.37H270.268C271.553 139.372 272.786 139.882 273.695 140.788C274.604 141.695 275.116 142.924 275.117 144.206V146.498C275.116 147.78 274.604 149.009 273.695 149.916C272.786 150.822 271.553 151.332 270.268 151.334ZM200.357 140.291C199.316 140.292 198.318 140.705 197.582 141.439C196.846 142.173 196.432 143.168 196.431 144.206V146.498C196.432 147.536 196.846 148.531 197.582 149.265C198.318 149.999 199.316 150.412 200.357 150.413H270.268C271.308 150.412 272.306 149.999 273.042 149.265C273.778 148.531 274.192 147.536 274.193 146.498V144.206C274.192 143.168 273.778 142.173 273.042 141.439C272.306 140.705 271.308 140.292 270.268 140.291H200.357Z" fill="#3F3D56"/>
<path d="M291.512 29.9389V74.3304C284.438 76.1861 277.031 76.399 269.862 74.9527C262.692 73.5065 255.951 70.4395 250.157 65.9879C244.363 61.5363 239.67 55.8186 236.44 49.2748C233.209 42.731 231.527 35.5355 231.523 28.2419C231.523 26.94 231.576 25.6517 231.681 24.3769H257.927C259.185 24.3781 260.425 24.0705 261.536 23.4811C262.647 22.8917 263.595 22.0388 264.297 20.9975C264.999 19.9562 265.434 18.7586 265.562 17.5103C265.69 16.262 265.508 15.0015 265.032 13.8399H275.36C277.481 13.8391 279.581 14.255 281.541 15.0637C283.5 15.8724 285.281 17.0581 286.781 18.5531C288.281 20.0482 289.47 21.8232 290.282 23.7768C291.094 25.7304 291.512 27.8243 291.512 29.9389Z" fill="#F0F0F0"/>
<path d="M219.866 247.351C219.866 248.287 219.831 249.211 219.756 250.124H195.823C193.703 250.124 191.603 249.707 189.645 248.898C187.686 248.089 185.906 246.904 184.406 245.409C182.907 243.914 181.718 242.139 180.907 240.186C180.095 238.232 179.678 236.139 179.678 234.025V212.195C184.694 211.544 189.792 211.967 194.632 213.436C199.472 214.905 203.942 217.385 207.745 220.711C211.548 224.038 214.596 228.135 216.686 232.728C218.776 237.322 219.86 242.307 219.866 247.351H219.866Z" fill="#415A77"/>
<path d="M26.8442 209.048C27.5167 209.343 28.279 209.36 28.964 209.095C29.6489 208.831 30.2006 208.306 30.498 207.636L52.0575 158.913C52.551 157.798 52.7018 156.563 52.4908 155.362C52.2798 154.162 51.7166 153.051 50.8723 152.169C50.028 151.288 48.9406 150.676 47.7476 150.411C46.5546 150.146 45.3096 150.24 44.1701 150.681H44.17C42.8535 151.182 41.7518 152.123 41.0524 153.343C40.9411 153.536 40.8402 153.735 40.7501 153.938L19.1906 202.661C19.0437 202.993 18.9638 203.35 18.9554 203.713C18.9471 204.076 19.0105 204.437 19.1421 204.775C19.2737 205.114 19.4708 205.423 19.7222 205.685C19.9736 205.948 20.2744 206.158 20.6073 206.304L26.8442 209.048Z" fill="#415A77"/>
<path d="M51.1724 178.916L29.8473 174.191L35.1255 160.268C36.0246 156.865 38.1172 153.896 41.0236 151.899C43.93 149.903 47.4578 149.011 50.967 149.386L51.1724 149.409L51.1724 178.916Z" fill="#2F2E41"/>
<path d="M94.2458 209.745C93.6185 209.744 93.0051 209.562 92.4795 209.221C91.954 208.879 91.5388 208.393 91.2844 207.822L69.7249 159.099C69.0393 157.549 68.9755 155.796 69.5468 154.2C70.1181 152.604 71.2809 151.288 72.7961 150.521C74.3113 149.754 76.0636 149.596 77.6925 150.078C79.3214 150.56 80.703 151.646 81.553 153.114V153.113C81.6725 153.32 81.7808 153.534 81.8775 153.753L103.437 202.475C103.783 203.257 103.803 204.145 103.493 204.942C103.183 205.739 102.569 206.381 101.784 206.726L95.3359 209.563L95.3326 209.556C94.984 209.681 94.6163 209.745 94.2458 209.745Z" fill="#415A77"/>
<path d="M64.4234 193.014C63.6887 193.015 62.9843 193.306 62.4648 193.824C61.9453 194.342 61.653 195.045 61.6522 195.777V252.431C61.653 253.163 61.9453 253.866 62.4648 254.384C62.9843 254.902 63.6887 255.193 64.4234 255.194H71.2403C71.975 255.193 72.6794 254.902 73.1989 254.384C73.7185 253.866 74.0107 253.163 74.0115 252.431V195.777C74.0107 195.045 73.7185 194.342 73.1989 193.824C72.6794 193.306 71.975 193.015 71.2403 193.014H64.4234Z" fill="#415A77"/>
<path d="M50.9405 193.014C50.2058 193.015 49.5014 193.306 48.9819 193.824C48.4624 194.342 48.1701 195.045 48.1693 195.777V252.431C48.1701 253.163 48.4624 253.866 48.9819 254.384C49.5014 254.902 50.2058 255.193 50.9405 255.194H57.7575C58.4922 255.193 59.1966 254.902 59.7161 254.384C60.2356 253.866 60.5279 253.163 60.5287 252.431V195.777C60.5279 195.045 60.2356 194.342 59.7161 193.824C59.1966 193.306 58.4922 193.015 57.7575 193.014H50.9405Z" fill="#415A77"/>
<path d="M60.8867 133.66C73.8959 133.66 84.4418 123.144 84.4418 110.173C84.4418 97.2007 73.8959 86.685 60.8867 86.685C47.8776 86.685 37.3317 97.2007 37.3317 110.173C37.3317 123.144 47.8776 133.66 60.8867 133.66Z" fill="#415A77"/>
<path d="M68.7254 120.032C70.2523 119.99 72.1526 119.937 73.6165 118.871C74.0525 118.54 74.4106 118.119 74.666 117.636C74.9213 117.152 75.0676 116.619 75.0945 116.074C75.121 115.686 75.0572 115.298 74.9082 114.939C74.7591 114.58 74.5288 114.26 74.2353 114.005C73.4707 113.36 72.3541 113.209 71.1509 113.562L72.3976 104.478L71.4824 104.353L70.0168 115.032L70.781 114.683C71.667 114.278 72.8833 114.071 73.639 114.708C73.8246 114.875 73.9692 115.082 74.0616 115.313C74.1539 115.544 74.1915 115.794 74.1714 116.042C74.149 116.448 74.0392 116.844 73.8494 117.204C73.6596 117.564 73.3944 117.878 73.0716 118.127C71.9324 118.957 70.4177 119.064 68.6997 119.112L68.7254 120.032Z" fill="#2F2E41"/>
<path d="M81.8985 105.261H76.9235V106.182H81.8985V105.261Z" fill="#2F2E41"/>
<path d="M66.1951 105.261H61.2201V106.182H66.1951V105.261Z" fill="#2F2E41"/>
<path d="M84.2263 210.031L75.7483 148.319C75.6574 147.657 75.3292 147.051 74.8244 146.612C74.3196 146.172 73.6725 145.931 73.0026 145.931H66.6033C66.63 145.779 66.6438 145.624 66.6448 145.47V143.167C66.6448 142.434 66.3528 141.732 65.8331 141.213C65.3134 140.695 64.6086 140.404 63.8736 140.404H58.3312C57.5963 140.404 56.8914 140.695 56.3717 141.213C55.852 141.732 55.5601 142.434 55.5601 143.167V145.47C55.561 145.624 55.5749 145.779 55.6016 145.931H49.2022C48.5324 145.931 47.8852 146.173 47.3805 146.612C46.8757 147.051 46.5475 147.657 46.4565 148.319L37.9785 210.031C37.9248 210.422 37.9557 210.82 38.0691 211.198C38.1824 211.576 38.3757 211.926 38.6358 212.223C38.8959 212.52 39.2168 212.759 39.577 212.922C39.9372 213.085 40.3283 213.17 40.724 213.17H81.4808C81.8765 213.17 82.2676 213.085 82.6278 212.922C82.988 212.759 83.3089 212.52 83.5691 212.223C83.8292 211.926 84.0224 211.576 84.1358 211.198C84.2491 210.82 84.28 210.422 84.2263 210.031Z" fill="#2F2E41"/>
<path d="M71.0326 178.916V149.409L71.238 149.386C74.7515 149.011 78.2832 149.906 81.1915 151.907C84.0997 153.908 86.1916 156.883 87.0871 160.292L92.3576 174.191L71.0326 178.916Z" fill="#2F2E41"/>
<path d="M59.7006 134.393L43.4081 128.087C40.7439 127.056 38.0649 126.057 35.4148 124.99C34.2797 124.596 33.234 123.981 32.3381 123.182C31.5581 122.358 31.0265 121.333 30.8042 120.222C30.2391 117.84 30.3413 115.237 30.3816 112.806C30.4129 110.147 30.6323 107.494 31.0382 104.866C31.7497 99.9276 33.4206 95.175 35.9572 90.8746C40.5263 83.3993 48.3986 77.7751 57.4537 78.224C61.6459 78.4318 65.8622 79.9318 68.977 82.7898C69.3019 83.177 69.6664 83.5293 70.0647 83.841C70.3415 83.9445 70.6427 83.9647 70.931 83.899C71.3111 83.8746 71.6915 83.856 72.0722 83.8431C73.3932 83.7876 74.7166 83.8429 76.0283 84.0086C78.4187 84.2661 80.6843 85.2042 82.5546 86.7108C84.1112 88.0459 85.3777 89.9307 85.508 92.0253C85.5709 92.9869 85.4115 93.95 85.042 94.8404C84.6725 95.7308 84.1028 96.5246 83.3768 97.1606C81.4331 98.7942 78.6598 98.22 76.3281 98.0968L67.7865 97.6456L63.4588 97.417C62.5677 97.3699 62.5703 98.7517 63.4588 98.7986L74.9615 99.4063C76.81 99.5039 78.715 99.7432 80.565 99.6327C81.9865 99.5685 83.3438 99.024 84.4138 98.0888C85.3911 97.1936 86.119 96.0612 86.5267 94.802C86.9344 93.5428 87.0079 92.1998 86.7401 90.9038C86.147 88.0772 84.0373 85.739 81.5641 84.3479C78.1989 82.4552 74.1798 82.2739 70.4143 82.5537L70.9042 82.756C66.6448 78.1975 60.1204 76.2728 53.9953 76.9464C47.5281 77.6575 41.7761 81.2551 37.6434 86.1745C33.0356 91.6593 30.5247 98.4984 29.5485 105.531C29.0405 109.328 28.8733 113.163 29.0488 116.989C29.0415 118.677 29.3311 120.353 29.9042 121.94C30.5582 123.486 31.7407 124.75 33.2413 125.508C34.9617 126.336 36.7304 127.06 38.5379 127.677L44.5404 130.001L56.331 134.564L59.3322 135.725C60.164 136.047 60.5243 134.712 59.7006 134.393Z" fill="#2F2E41"/>
<path d="M34.0835 87.4418C32.6676 87.4418 31.2835 87.0232 30.1062 86.2388C28.9289 85.4544 28.0113 84.3396 27.4695 83.0352C26.9277 81.7308 26.7859 80.2955 27.0621 78.9108C27.3383 77.5261 28.0202 76.2542 29.0213 75.2558C30.0225 74.2575 31.2981 73.5776 32.6868 73.3022C34.0755 73.0268 35.5149 73.1681 36.823 73.7084C38.1312 74.2487 39.2492 75.1637 40.0359 76.3376C40.8225 77.5115 41.2424 78.8916 41.2424 80.3034C41.2402 82.196 40.4853 84.0104 39.1432 85.3487C37.8011 86.6869 35.9815 87.4397 34.0835 87.4418ZM34.0835 74.5467C32.9416 74.5467 31.8254 74.8843 30.876 75.5169C29.9266 76.1494 29.1866 77.0485 28.7496 78.1004C28.3127 79.1523 28.1983 80.3098 28.4211 81.4265C28.6439 82.5432 29.1937 83.569 30.0011 84.3741C30.8085 85.1792 31.8372 85.7275 32.9571 85.9496C34.0771 86.1717 35.2379 86.0577 36.2928 85.622C37.3477 85.1863 38.2494 84.4484 38.8838 83.5017C39.5182 82.555 39.8568 81.442 39.8568 80.3034C39.855 78.7772 39.2462 77.3139 38.1639 76.2347C37.0816 75.1555 35.6141 74.5484 34.0835 74.5467Z" fill="#2F2E41"/>
<path d="M153.754 131.679L138.259 119.862L126.408 135.313L141.903 147.13L153.754 131.679Z" fill="#F0F0F0"/>
<path d="M66.183 26.1898C68.6313 26.1879 71.0459 26.7576 73.2336 27.8534C75.4214 28.9492 77.3214 30.5407 78.7815 32.5002L87.8293 20.704L60.6815 0L39.9181 27.0702L51.6187 35.9935C52.7896 33.0979 54.8019 30.6173 57.3971 28.8704C59.9922 27.1235 63.0519 26.19 66.183 26.1898Z" fill="#F0F0F0"/>
<path d="M326.538 256H0.461864C0.33937 256 0.221893 255.951 0.135277 255.865C0.0486602 255.779 0 255.662 0 255.539C0 255.417 0.0486602 255.3 0.135277 255.214C0.221893 255.127 0.33937 255.079 0.461864 255.079H326.538C326.661 255.079 326.778 255.127 326.865 255.214C326.951 255.3 327 255.417 327 255.539C327 255.662 326.951 255.779 326.865 255.865C326.778 255.951 326.661 256 326.538 256Z" fill="#3F3D56"/>
<path d="M246.953 179.582H213.763C212.538 179.581 211.364 179.095 210.498 178.232C209.632 177.368 209.145 176.198 209.144 174.977V172.684C209.145 171.463 209.632 170.293 210.498 169.429C211.364 168.566 212.538 168.08 213.763 168.079H246.953C248.178 168.08 249.352 168.566 250.217 169.429C251.083 170.293 251.57 171.463 251.572 172.684V174.977C251.57 176.198 251.083 177.368 250.217 178.232C249.352 179.095 248.178 179.581 246.953 179.582Z" fill="#415A77"/>
<path d="M250.45 175.163H217.26C215.974 175.161 214.741 174.651 213.832 173.745C212.923 172.838 212.412 171.609 212.41 170.327V168.035C212.412 166.753 212.923 165.524 213.832 164.617C214.741 163.71 215.974 163.201 217.26 163.199H250.45C251.736 163.201 252.969 163.71 253.878 164.617C254.787 165.524 255.298 166.753 255.3 168.035V170.327C255.298 171.609 254.787 172.838 253.878 173.745C252.969 174.651 251.736 175.161 250.45 175.163ZM217.26 164.12C216.219 164.121 215.221 164.534 214.485 165.268C213.749 166.002 213.335 166.997 213.334 168.035V170.327C213.335 171.365 213.749 172.36 214.485 173.094C215.221 173.828 216.219 174.241 217.26 174.242H250.45C251.491 174.241 252.489 173.828 253.225 173.094C253.961 172.36 254.375 171.365 254.376 170.327V168.035C254.375 166.997 253.961 166.002 253.225 165.268C252.489 164.534 251.491 164.121 250.45 164.12H217.26Z" fill="#3F3D56"/>
</svg>
