<svg width="372" height="313" viewBox="0 0 372 313" fill="none" xmlns="http://www.w3.org/2000/svg">
<g clip-path="url(#clip0_10_80)">
<path d="M302.965 151.065C302.965 155.463 302.779 159.817 302.408 164.126C302.116 167.489 301.718 170.823 301.213 174.126C300.677 177.623 300.019 181.079 299.241 184.492V184.496C298.732 186.742 298.173 188.97 297.564 191.18C295.798 197.604 293.601 203.902 290.988 210.032C290.42 211.365 289.834 212.69 289.229 214.005C286.94 218.986 284.377 223.838 281.552 228.537C273.629 241.734 263.739 253.653 252.222 263.884C250.975 264.99 249.712 266.077 248.431 267.145C221.238 289.799 186.916 302.185 151.482 302.13C67.8199 302.13 0 234.497 0 151.065C0 67.6329 67.8199 -0.00024014 151.482 -0.00024014C185.696 -0.0540379 218.91 11.4948 245.674 32.7502C246.928 33.7416 248.167 34.7552 249.39 35.7912C255.357 40.8384 260.927 46.336 266.049 52.2353H266.053C289.909 79.6593 303.019 114.76 302.965 151.065Z" fill="#F2F2F2"/>
<path d="M44.7174 177.16C30.2869 168.595 19.3954 152.588 20.8094 135.901C34.0023 148.493 51.2364 156.026 69.4624 157.166C76.493 157.58 84.356 157.311 89.5313 162.075C92.7516 165.039 94.2506 169.502 94.4965 173.865C94.7423 178.228 93.8658 182.568 92.9938 186.851L93.2939 187.9C76.5011 187.963 59.1478 185.725 44.7174 177.16Z" fill="#E6E6E6"/>
<path d="M21.1613 135.883C26.9432 148.488 36.5609 158.957 48.6483 165.801C51.2468 167.251 54.0094 168.497 56.9452 169.075C59.8111 169.616 62.7701 169.382 65.5147 168.398C68.0924 167.531 70.6283 166.346 73.3723 166.12C76.2647 165.88 78.9424 166.993 81.0462 168.942C83.6203 171.327 85.1816 174.492 86.6006 177.64C88.1761 181.135 89.757 184.79 92.7777 187.304C93.1437 187.608 92.6484 188.157 92.283 187.853C87.0275 183.48 86.1697 176.156 81.9687 171.006C80.0084 168.603 77.3101 166.774 74.1045 166.822C71.3013 166.864 68.6852 168.084 66.0829 168.984C63.3505 169.929 60.6132 170.373 57.7285 169.957C54.7775 169.532 51.9603 168.391 49.336 167.013C43.4084 163.844 38.0173 159.766 33.3601 154.927C28.0142 149.434 23.65 143.069 20.4563 136.108C20.2588 135.677 20.9651 135.455 21.1613 135.883H21.1613Z" fill="white"/>
<path d="M44.6261 163.825C43.1994 165.692 41.1538 166.992 38.8546 167.493C36.5555 167.994 34.1525 167.664 32.0748 166.562C31.6552 166.337 31.9853 165.677 32.4055 165.901C34.3383 166.932 36.5767 167.239 38.7167 166.768C40.8568 166.296 42.7574 165.078 44.0756 163.332C44.3625 162.953 44.9114 163.448 44.6261 163.825L44.6261 163.825Z" fill="white"/>
<path d="M64.2658 169.009C63.6653 164.249 61.2878 159.889 57.6073 156.799C57.2424 156.494 57.7375 155.945 58.102 156.25C61.926 159.473 64.3909 164.015 65.0049 168.97C65.0631 169.442 64.3237 169.479 64.2658 169.009V169.009Z" fill="white"/>
<path d="M28.932 149.087C29.635 148.48 30.1756 147.708 30.5054 146.84C30.8352 145.973 30.9438 145.037 30.8214 144.118C30.7572 143.647 31.4967 143.61 31.5605 144.079C31.6909 145.095 31.5697 146.128 31.2075 147.087C30.8453 148.046 30.253 148.902 29.4825 149.581C29.4153 149.651 29.3238 149.692 29.2267 149.698C29.1297 149.703 29.0343 149.671 28.9599 149.608C28.8874 149.543 28.8437 149.451 28.8385 149.353C28.8333 149.256 28.8669 149.16 28.932 149.087V149.087Z" fill="white"/>
<path d="M67.5197 103.572C67.5682 103.865 67.6166 104.159 67.6707 104.455C68.3427 108.393 69.3343 112.27 70.636 116.048C70.732 116.342 70.8337 116.638 70.9379 116.928C74.1711 125.997 79.0646 134.389 85.3696 141.677C87.8812 144.574 90.6102 147.277 93.533 149.762C97.5697 153.193 102.22 156.593 104.808 161.023C105.084 161.482 105.33 161.958 105.546 162.448L94.5541 187.454C94.5005 187.498 94.4525 187.545 94.3988 187.59L94.0056 188.608C93.8459 188.49 93.6828 188.365 93.5231 188.247C93.4302 188.179 93.3397 188.106 93.2468 188.038C93.1856 187.991 93.1245 187.944 93.0666 187.905C93.0462 187.889 93.0259 187.874 93.0111 187.86C92.9532 187.822 92.9036 187.779 92.8514 187.743C91.9377 187.044 91.0273 186.338 90.1203 185.624C90.1146 185.621 90.1146 185.621 90.1113 185.613C83.214 180.156 76.713 174.077 71.3439 167.207C71.1824 167 71.0151 166.791 70.8587 166.573C68.4558 163.463 66.3118 160.162 64.4482 156.703C63.4338 154.806 62.5164 152.859 61.6994 150.87C59.5985 145.725 58.322 140.283 57.9169 134.743C57.111 123.698 59.856 112.519 66.9699 104.202C67.1521 103.99 67.3318 103.782 67.5197 103.572Z" fill="#E6E6E6"/>
<path d="M67.8133 103.768C64.8196 117.304 66.1788 131.437 71.698 144.159C72.8971 146.877 74.3507 149.53 76.3458 151.754C78.3072 153.907 80.8109 155.497 83.5969 156.359C86.1783 157.215 88.9182 157.791 91.2462 159.258C93.7 160.803 95.1661 163.3 95.6692 166.119C96.2847 169.569 95.6205 173.033 94.853 176.398C94.0008 180.135 93.0563 184.003 93.9507 187.823C94.0591 188.286 93.3325 188.427 93.2243 187.965C91.6682 181.318 95.4047 174.955 95.1598 168.321C95.0455 165.225 93.9951 162.145 91.4065 160.259C89.1429 158.609 86.318 158.012 83.6967 157.168C80.9443 156.282 78.4907 154.993 76.4385 152.929C74.3392 150.818 72.7785 148.215 71.515 145.54C68.6953 139.45 66.8531 132.957 66.056 126.297C65.1041 118.701 65.4621 110.999 67.1145 103.524C67.217 103.061 67.9151 103.308 67.8133 103.768Z" fill="white"/>
<path d="M69.6791 140.166C67.413 140.8 64.9948 140.61 62.8564 139.63C60.718 138.65 58.9986 136.943 58.0053 134.816C57.8058 134.384 58.4684 134.055 58.6681 134.487C59.5894 136.47 61.1912 138.059 63.1844 138.968C65.1775 139.876 67.4307 140.045 69.5373 139.442C69.9953 139.312 70.1344 140.037 69.679 140.166H69.6791Z" fill="white"/>
<path d="M82.2307 156.097C84.6251 151.936 85.3588 147.028 84.2855 142.351C84.1788 141.887 84.9053 141.747 85.0119 142.209C86.1197 147.078 85.3458 152.185 82.8446 156.51C82.6059 156.922 81.9933 156.507 82.2307 156.097Z" fill="white"/>
<path d="M66.046 118.976C66.974 118.913 67.8718 118.621 68.6588 118.127C69.4458 117.632 70.0972 116.95 70.5547 116.143C70.7881 115.728 71.4004 116.143 71.1686 116.555C70.659 117.445 69.9386 118.197 69.0703 118.745C68.2021 119.294 67.2124 119.622 66.1877 119.7C66.0918 119.716 65.9935 119.694 65.9129 119.64C65.8322 119.586 65.7753 119.503 65.7537 119.409C65.7354 119.313 65.7558 119.214 65.8106 119.132C65.8653 119.051 65.9499 118.995 66.046 118.976V118.976Z" fill="white"/>
<path d="M104.933 35.0125L123.474 251.458L86.3922 254.238V37.7663C90.8109 34.8506 97.1537 34.3944 104.933 35.0125Z" fill="#CCCCCC"/>
<path d="M196.454 35.0125L177.913 251.458L214.994 254.238V37.7663C210.576 34.8506 204.233 34.3944 196.454 35.0125Z" fill="#CCCCCC"/>
<path d="M209.442 263.184H91.55C89.6596 263.182 87.8473 262.432 86.5105 261.099C85.1738 259.766 84.4219 257.959 84.4198 256.073V40.9429C84.422 39.0577 85.1739 37.2504 86.5106 35.9173C87.8473 34.5843 89.6596 33.8345 91.55 33.8323H209.442C211.333 33.8345 213.145 34.5843 214.482 35.9173C215.818 37.2504 216.57 39.0577 216.572 40.9429V256.073C216.57 257.959 215.818 259.766 214.482 261.099C213.145 262.432 211.333 263.182 209.442 263.184ZM91.55 36.1927C90.2872 36.1941 89.0764 36.695 88.1834 37.5856C87.2904 38.4761 86.7881 39.6835 86.7867 40.9429V256.073C86.7881 257.333 87.2904 258.54 88.1834 259.431C89.0764 260.321 90.2871 260.822 91.55 260.824H209.442C210.705 260.822 211.916 260.321 212.809 259.431C213.702 258.54 214.204 257.333 214.205 256.073V40.9429C214.204 39.6835 213.702 38.4761 212.809 37.5856C211.916 36.695 210.705 36.1941 209.442 36.1927L91.55 36.1927Z" fill="#CCCCCC"/>
<path d="M215.389 69.6317H85.6033V71.9921H215.389V69.6317Z" fill="#CCCCCC"/>
<path d="M215.389 108.972H85.6033V111.332H215.389V108.972Z" fill="#CCCCCC"/>
<path d="M127.72 35.0125H125.353V142.411H127.72V35.0125Z" fill="#CCCCCC"/>
<path d="M175.639 35.0125H173.272V142.411H175.639V35.0125Z" fill="#CCCCCC"/>
<path d="M230.182 269.675H74.7549C71.9301 269.675 69.2209 268.556 67.2235 266.564C65.226 264.572 64.1038 261.87 64.1038 259.053C64.1038 256.236 65.226 253.535 67.2235 251.543C69.2209 249.551 71.9301 248.432 74.7549 248.432H230.182C233.007 248.432 235.716 249.551 237.714 251.543C239.711 253.535 240.833 256.236 240.833 259.053C240.833 261.87 239.711 264.572 237.714 266.564C235.716 268.556 233.007 269.675 230.182 269.675Z" fill="#CCCCCC"/>
<path d="M215.389 136.903H86.3923V144.771H215.389V136.903Z" fill="#CCCCCC"/>
<path d="M128.087 161.943L127.924 161.864C119.13 157.628 107.614 157.632 90.5843 161.878L90.4024 161.923L90.3479 161.744C88.5464 155.854 86.5056 149.182 90.3395 145.899C90.3932 136.266 98.866 128.445 109.273 128.445C119.678 128.445 128.15 136.262 128.206 145.892C133.91 150.241 131.192 156.667 128.179 161.787L128.087 161.943Z" fill="#2F2E41"/>
<path d="M182.136 141.317C181.979 142.097 181.651 142.834 181.177 143.475C180.703 144.116 180.094 144.645 179.393 145.025C178.692 145.406 177.915 145.629 177.118 145.678C176.321 145.727 175.523 145.601 174.78 145.309L143.704 176.452L140.931 166.782L171.796 137.861C172.37 136.649 173.371 135.689 174.607 135.164C175.844 134.638 177.231 134.583 178.505 135.009C179.78 135.435 180.854 136.312 181.523 137.475C182.192 138.638 182.41 140.005 182.136 141.317L182.136 141.317Z" fill="#FFB6B6"/>
<path d="M105.331 171.299C105.331 171.299 102.511 177.671 109.468 181.6C116.425 185.529 140.74 180.101 144.685 179.342C148.631 178.584 163.366 156.593 163.366 156.593L161.283 145.808L141.74 162.726L105.331 171.299Z" fill="#415A77"/>
<path d="M100.199 206.535L100.594 214.009C100.594 214.009 99.4294 220.63 100.387 222.059C101.337 223.481 127.271 223.66 127.271 223.66C127.271 223.66 128.985 214.448 130.461 206.385L100.199 206.535Z" fill="#FFB6B6"/>
<path d="M174.762 305.365L180.184 304.273L178.632 282.434L170.631 284.045L174.762 305.365Z" fill="#FFB6B6"/>
<path d="M182.529 276.944L187.569 274.684L181.03 253.789L173.591 257.125L182.529 276.944Z" fill="#FFB6B6"/>
<path d="M186.919 265.171L177.429 270.53L154.023 233.022C137.592 244.061 121.525 249.348 105.328 252.169C99.8513 253.141 94.268 252.648 93.2167 247.09C93.1675 246.83 93.1283 246.569 93.0991 246.306C92.4524 240.235 100.026 232.453 100.988 225.024L121.715 223.784L124.271 227.052L148.24 212.356C153.06 209.4 159.4 210.999 162.401 215.926C162.559 216.186 162.706 216.453 162.842 216.726L186.919 265.171Z" fill="#2F2E41"/>
<path d="M181.11 290.402L170.251 291.409L150.561 251.25C131.036 254.599 112.615 255.672 96.6827 251.621C91.2882 250.268 87.9908 244.713 89.3176 239.214C89.3796 238.957 89.4513 238.702 89.5327 238.451C91.4396 232.649 96.431 228.544 100.364 222.162L129.089 222.598L125.88 233.637L153.785 230.036C159.397 229.312 164.522 233.363 165.232 239.084C165.269 239.386 165.294 239.689 165.305 239.994L181.11 290.402Z" fill="#2F2E41"/>
<path d="M111.415 156.234C117.857 156.234 123.079 151.026 123.079 144.602C123.079 138.178 117.857 132.97 111.415 132.97C104.973 132.97 99.7513 138.178 99.7513 144.602C99.7513 151.026 104.973 156.234 111.415 156.234Z" fill="#FFB6B6"/>
<path d="M104.577 160.433L115.272 161.687C115.723 161.74 116.146 161.932 116.483 162.236C116.819 162.541 117.052 162.942 117.149 163.384L118.85 171.146L129.452 183.597C129.452 183.597 133.26 190.716 131.832 198.784C130.404 206.852 129.777 212.847 129.777 212.847C129.777 212.847 101.336 223.481 100.384 222.058C99.4324 220.634 99.1235 214.167 99.1235 214.167L95.3163 171.928C95.3163 171.928 99.5994 164.809 101.979 164.809C103.515 164.757 103.318 161.31 104.577 160.433Z" fill="#415A77"/>
<path d="M130.066 215.444C131.566 215.444 132.782 213.989 132.782 212.194C132.782 210.4 131.566 208.945 130.066 208.945C128.566 208.945 127.35 210.4 127.35 212.194C127.35 213.989 128.566 215.444 130.066 215.444Z" fill="#415A77"/>
<path d="M172.072 299.742L180.338 295.611L181.896 299.235L192.348 301.342C192.864 301.446 193.334 301.712 193.688 302.101C194.042 302.49 194.262 302.981 194.316 303.504C194.37 304.026 194.255 304.552 193.988 305.005C193.721 305.458 193.316 305.814 192.832 306.021L182.733 310.338L179.451 307.497L180.312 311.372L176.505 313L172.072 299.742Z" fill="#2F2E41"/>
<path d="M180.163 275.206L188.355 270.93L189.976 274.527L200.464 276.45C200.982 276.545 201.457 276.803 201.817 277.185C202.178 277.568 202.407 278.056 202.47 278.577C202.533 279.099 202.428 279.627 202.169 280.084C201.91 280.541 201.511 280.904 201.031 281.12L191.009 285.613L187.678 282.83L188.607 286.69L184.829 288.384L180.163 275.206Z" fill="#2F2E41"/>
<path d="M104.751 140.953C101.67 140.958 98.6621 140.012 96.1413 138.244L96.0572 138.185V138.083C96.0605 135.111 97.2461 132.261 99.3538 130.159C101.462 128.057 104.319 126.875 107.3 126.871H112.034C115.015 126.875 117.872 128.057 119.98 130.159C122.088 132.261 123.273 135.111 123.277 138.083C123.273 138.763 123.004 139.416 122.526 139.901C122.048 140.386 121.398 140.666 120.716 140.681L105.017 140.951C104.929 140.952 104.84 140.953 104.751 140.953Z" fill="#2F2E41"/>
<path d="M124.066 135.93C125.575 135.061 125.827 132.678 124.629 130.609C123.431 128.539 121.236 127.565 119.726 128.435C118.217 129.304 117.965 131.686 119.163 133.756C120.361 135.825 122.556 136.799 124.066 135.93Z" fill="#2F2E41"/>
<path d="M100.458 133.621C102.153 131.931 102.528 129.564 101.295 128.335C100.063 127.106 97.6899 127.48 95.9953 129.17C94.3007 130.86 93.926 133.226 95.1585 134.455C96.3909 135.684 98.7638 135.311 100.458 133.621Z" fill="#2F2E41"/>
<path d="M203.688 239.974H192.046C191.783 239.973 191.523 240.03 191.285 240.139C191.047 240.249 190.835 240.41 190.665 240.61C190.236 240.531 189.794 240.555 189.376 240.68C188.957 240.804 188.575 241.026 188.259 241.327C187.943 241.628 187.704 241.999 187.56 242.41C187.416 242.821 187.372 243.26 187.431 243.692C187.49 244.123 187.651 244.534 187.901 244.892C188.15 245.249 188.481 245.542 188.866 245.747C189.252 245.952 189.68 246.063 190.117 246.071C190.553 246.079 190.985 245.983 191.378 245.792L192.343 248.921C192.458 249.292 192.688 249.617 193.001 249.847C193.314 250.078 193.693 250.202 194.082 250.202H201.651C202.041 250.202 202.419 250.077 202.732 249.847C203.045 249.617 203.276 249.292 203.39 248.921L205.427 242.321C205.51 242.05 205.529 241.763 205.481 241.483C205.433 241.203 205.32 240.938 205.151 240.71C204.982 240.482 204.762 240.296 204.507 240.168C204.253 240.04 203.973 239.974 203.688 239.974ZM190.174 245.284C189.651 245.284 189.149 245.077 188.78 244.708C188.41 244.339 188.202 243.839 188.202 243.317C188.202 242.796 188.41 242.295 188.78 241.927C189.149 241.558 189.651 241.35 190.174 241.35C190.21 241.35 190.244 241.359 190.279 241.361C190.201 241.678 190.21 242.01 190.307 242.321L191.14 245.022C190.847 245.192 190.514 245.282 190.174 245.284Z" fill="#3F3D56"/>
<path d="M151.7 231.434C150.905 231.507 150.104 231.406 149.352 231.137C148.601 230.868 147.918 230.438 147.351 229.877C146.784 229.316 146.347 228.638 146.072 227.891C145.796 227.144 145.688 226.345 145.755 225.552L106.923 204.799L115.416 199.376L152.053 220.564C153.382 220.765 154.591 221.445 155.451 222.476C156.311 223.506 156.761 224.815 156.718 226.155C156.674 227.495 156.14 228.772 155.215 229.745C154.29 230.718 153.04 231.319 151.7 231.434Z" fill="#FFB6B6"/>
<path d="M100.863 166.662C100.863 166.662 93.9333 165.797 92.1547 173.57C90.3762 181.344 102.567 203.015 104.428 206.566C106.288 210.118 131.64 217.886 131.64 217.886L141.403 212.801L119.544 198.985L100.863 166.662Z" fill="#415A77"/>
<path d="M149.707 134.543H152.074C153.225 134.543 154.329 134.998 155.142 135.81C155.956 136.622 156.413 137.722 156.413 138.87H145.368C145.368 137.722 145.825 136.622 146.639 135.81C147.453 134.998 148.556 134.543 149.707 134.543Z" fill="#CCCCCC"/>
<path d="M74.653 53.8035C87.6035 53.8035 98.102 43.3339 98.102 30.4191C98.102 17.5042 87.6035 7.0347 74.653 7.0347C61.7025 7.0347 51.2041 17.5042 51.2041 30.4191C51.2041 43.3339 61.7025 53.8035 74.653 53.8035Z" fill="#FF6584"/>
<path d="M146.448 29.2004C140.242 22.7084 133.035 16.7859 124.503 13.6563C122.126 12.7808 119.662 12.1632 117.153 11.8142C117.132 11.8115 117.113 11.8156 117.093 11.8139C117.052 11.8034 117.011 11.7953 116.969 11.7897C113.46 11.3438 109.898 11.5583 106.467 12.4219C104.79 12.8417 103.153 13.4103 101.577 14.1207C99.9959 14.8901 98.4635 15.7562 96.989 16.7139C93.868 18.577 90.4317 19.8553 86.8497 20.486C85.0517 20.8088 83.2306 20.9871 81.404 21.019C79.8191 21.0507 78.3244 21.1056 76.8228 21.6767C75.2187 22.2782 73.7778 23.2453 72.6151 24.5008C71.4524 25.7563 70.6 27.2654 70.126 28.9077C70.0895 29.054 70.1005 29.208 70.1575 29.3476C70.2144 29.4873 70.3144 29.6052 70.443 29.6845C70.8492 29.9746 71.2452 30.3037 71.672 30.5622C72.0516 30.7355 72.4571 30.8458 72.8724 30.8887C73.551 31.0315 74.2304 31.1701 74.9106 31.3046C77.4167 31.7997 79.9332 32.2381 82.4601 32.6196C87.5732 33.3915 92.7139 33.9352 97.8822 34.2508C108.236 34.8762 118.625 34.5648 128.922 33.3204C134.709 32.6214 140.457 31.63 146.144 30.35C146.259 30.3164 146.363 30.2538 146.447 30.1681C146.531 30.0824 146.591 29.9766 146.621 29.8609C146.652 29.7453 146.652 29.6237 146.622 29.5079C146.591 29.3922 146.532 29.2863 146.448 29.2004Z" fill="#E6E6E6"/>
<path d="M75.7659 44.8355C73.3893 43.96 70.925 43.3424 68.4157 42.9934C68.3955 42.9907 68.3764 42.9948 68.3563 42.9931C68.3155 42.9826 68.2741 42.9745 68.2323 42.9689C64.7228 42.523 61.1605 42.7375 57.7303 43.6012C56.0528 44.0209 54.4163 44.5895 52.8404 45.2999C51.2589 46.0693 49.7265 46.9354 48.252 47.8931C45.131 49.7562 41.6948 51.0345 38.1127 51.6652C36.3148 51.988 34.4937 52.1663 32.667 52.1982C31.0821 52.2299 29.5874 52.2849 28.0858 52.8559C26.4817 53.4574 25.0408 54.4245 23.8781 55.68C22.7154 56.9355 21.8631 58.4446 21.3891 60.0869C21.3525 60.2332 21.3635 60.3872 21.4205 60.5268C21.4775 60.6664 21.5774 60.7844 21.706 60.8636C22.1122 61.1538 22.5082 61.4829 22.935 61.7414C23.3146 61.9147 23.7201 62.025 24.1355 62.0679C24.814 62.2107 25.4934 62.3493 26.1736 62.4837C28.6797 62.9789 31.1962 63.4173 33.7231 63.7987C38.8362 64.5706 43.9769 65.1144 49.1452 65.4299C59.4989 66.0554 69.888 65.744 80.1853 64.4996C85.9725 63.8006 91.7203 62.8092 97.4067 61.5292C97.5218 61.4956 97.6263 61.4329 97.71 61.3472C97.7937 61.2615 97.8538 61.1557 97.8844 61.0401C97.915 60.9244 97.9151 60.8028 97.8848 60.6871C97.8544 60.5714 97.7946 60.4655 97.711 60.3796C91.5053 53.8876 84.298 47.9651 75.7659 44.8355Z" fill="#E6E6E6"/>
<path d="M244.866 219.162L226.833 195.538L212.605 203.561L242.756 239.267L244.866 219.162Z" fill="#3F3D56"/>
<path d="M286.404 180.759C286.805 190.659 288.343 200.481 290.988 210.032C290.42 211.365 289.834 212.69 289.229 214.005C286.94 218.986 284.377 223.838 281.552 228.537C273.629 241.735 263.739 253.653 252.222 263.884C250.975 264.99 249.712 266.077 248.431 267.146C241.129 257.106 237.188 246.028 235.63 234.627C235.433 233.179 235.271 231.716 235.149 230.26V230.253C234.85 226.715 234.753 223.163 234.861 219.615C234.865 219.332 234.873 219.045 234.884 218.757C235.022 214.965 235.366 211.165 235.882 207.4V207.396C235.942 206.963 236.001 206.531 236.068 206.098C236.257 204.8 236.47 203.501 236.703 202.211C238.058 194.769 239.948 187.434 242.36 180.263V180.259C242.427 180.051 242.494 179.846 242.569 179.642C242.829 178.863 243.094 178.092 243.366 177.321C243.383 177.26 243.404 177.201 243.429 177.144C243.78 176.137 244.139 175.137 244.506 174.146C244.605 173.871 244.707 173.595 244.814 173.32C245.228 172.214 245.65 171.117 246.08 170.035C246.214 169.689 246.352 169.343 246.49 169C246.597 168.737 246.699 168.473 246.81 168.214V168.21C247.437 166.664 248.072 165.148 248.715 163.662C250.518 159.484 252.372 155.554 254.179 151.931L254.183 151.927C261.682 136.927 268.498 127.186 268.498 127.186L294.097 135.447C291.043 140.849 288.68 148.815 287.386 158.213C286.39 165.683 286.061 173.227 286.404 180.755L286.404 180.759Z" fill="#3F3D56"/>
<path d="M243.859 178.355C243.709 178.005 243.539 177.663 243.366 177.321C242.466 175.583 241.307 173.992 239.93 172.6C239.725 172.392 239.512 172.183 239.291 171.986C236.915 169.804 234.025 168.254 230.889 167.479C227.753 166.705 224.472 166.732 221.35 167.557L221.334 167.564L221.215 167.596L221.243 167.73C221.361 168.353 221.533 168.965 221.756 169.559C221.815 169.72 221.882 169.874 221.949 170.027C221.977 170.098 222.012 170.161 222.044 170.232C222.044 170.232 222.04 170.236 222.048 170.236C222.048 170.24 222.052 170.244 222.052 170.247C222.127 170.393 222.198 170.543 222.277 170.684C222.115 170.531 221.961 170.373 221.811 170.212C221.665 170.063 221.531 169.905 221.397 169.748C220.937 169.213 220.522 168.642 220.154 168.041L220.091 167.934L219.981 167.978C218.492 168.492 217.072 169.186 215.752 170.043L215.61 170.137C214.602 170.797 213.466 171.238 212.276 171.432C211.086 171.626 209.868 171.568 208.702 171.262C206.864 170.79 204.947 170.703 203.073 171.009C201.2 171.314 199.41 172.005 197.819 173.037C196.764 173.722 195.811 174.551 194.986 175.499C194.915 175.582 194.844 175.669 194.773 175.751C194.623 175.932 194.481 176.117 194.343 176.306C192.86 178.282 191.95 180.627 191.712 183.084L191.704 183.175L191.779 183.226C193.114 184.138 194.623 184.765 196.213 185.067C195.214 185.206 194.203 185.231 193.199 185.142H193.195C192.74 185.104 192.287 185.041 191.838 184.953L191.755 184.937H191.751L191.649 184.917L191.665 185.106C191.782 187.51 192.541 189.839 193.862 191.853L193.901 191.908C193.916 191.928 193.929 191.949 193.941 191.971C194.5 192.825 194.966 193.736 195.329 194.689C196.252 197.058 196.455 199.645 195.913 202.129C195.3 204.784 195.504 207.563 196.498 210.102C197.491 212.64 199.229 214.822 201.483 216.362C203.464 217.721 205.772 218.529 208.17 218.702C208.497 218.73 208.829 218.746 209.16 218.746C211.057 218.752 212.934 218.362 214.671 217.601L214.734 217.577L214.75 217.507C215.084 216.432 215.553 215.403 216.146 214.446C215.952 215.2 215.854 215.976 215.854 216.755V217.015L216.079 216.885C216.273 216.771 216.47 216.649 216.647 216.535C217.713 215.841 218.678 215.004 219.515 214.049C219.843 213.671 220.174 213.305 220.521 212.939L220.525 212.935C221.2 212.219 221.914 211.519 222.655 210.85C224.233 209.437 225.922 208.152 227.705 207.007C229.487 205.866 231.35 204.856 233.279 203.985H233.283C233.5 203.883 233.721 203.785 233.938 203.69C234.898 203.273 235.823 202.779 236.703 202.211C236.735 202.192 236.762 202.176 236.79 202.156C240.603 199.666 243.407 195.907 244.701 191.549C245.996 187.19 245.697 182.515 243.859 178.355L243.859 178.355Z" fill="#415A77"/>
<path opacity="0.15" d="M196.563 207.714C196.455 208.192 196.374 208.676 196.319 209.163C195.584 206.849 195.478 204.382 196.01 202.013C196.092 201.65 196.154 201.284 196.202 200.915C196.931 203.108 197.056 205.456 196.563 207.714Z" fill="black"/>
<path opacity="0.15" d="M196.861 190.649C195.693 190.811 194.508 190.817 193.338 190.666C193.032 190.09 192.767 189.492 192.546 188.878C193.849 189.755 195.317 190.358 196.861 190.649Z" fill="black"/>
<path opacity="0.15" d="M193.244 185.015C192.813 186.115 192.526 187.266 192.392 188.44C192.032 187.322 191.819 186.163 191.76 184.99L191.75 184.801L191.936 184.837C192.369 184.918 192.806 184.978 193.244 185.015Z" fill="black"/>
<path opacity="0.15" d="M197.92 172.92C199.51 171.887 201.299 171.195 203.171 170.889C205.044 170.583 206.961 170.67 208.798 171.143C209.964 171.451 211.183 171.51 212.374 171.316C213.564 171.123 214.701 170.681 215.709 170.02L215.852 169.926C217.171 169.067 218.59 168.372 220.078 167.856L220.192 167.817L220.254 167.919C220.842 168.89 221.555 169.779 222.375 170.565C221.877 169.64 221.528 168.643 221.342 167.611L221.315 167.474L221.45 167.439C224.379 166.666 227.449 166.594 230.411 167.23C233.373 167.866 236.142 169.191 238.493 171.097C240.844 173.003 242.709 175.437 243.937 178.199C245.165 180.961 245.721 183.974 245.559 186.991C244.938 184.531 243.833 182.219 242.309 180.188C240.785 178.157 238.873 176.448 236.681 175.159C234.49 173.871 232.065 173.029 229.545 172.683C227.025 172.336 224.461 172.492 222.002 173.14L221.868 173.176L221.895 173.312C222.081 174.345 222.43 175.342 222.927 176.267C222.108 175.48 221.395 174.591 220.807 173.621L220.745 173.518L220.631 173.558C219.143 174.073 217.723 174.768 216.404 175.628L216.262 175.721C215.254 176.382 214.117 176.824 212.926 177.018C211.736 177.211 210.517 177.152 209.351 176.845C206.297 176.055 203.063 176.345 200.2 177.667C197.337 178.989 195.022 181.26 193.65 184.094C193.04 183.801 192.448 183.471 191.878 183.106L191.801 183.057L191.81 182.967C192.006 180.942 192.657 178.987 193.715 177.248C194.773 175.508 196.21 174.029 197.92 172.92Z" fill="black"/>
<path d="M344.575 72.4012L344.2 72.1534L343.928 72.5074C341.821 75.1524 340.145 78.1116 338.961 81.2763C339.125 77.6305 339.764 74.0215 340.863 70.5404L340.981 70.1746L340.642 69.9818C336.228 67.4893 331.525 65.5446 326.638 64.191L326.105 64.0493C322.359 63.0244 318.872 61.2236 315.871 58.7643C312.87 56.3051 310.423 53.2427 308.689 49.7768C304.658 41.8225 298.291 35.2831 290.437 31.0312C282.583 26.7794 273.616 25.0173 264.731 25.9801H264.727C264.633 25.988 264.534 25.9998 264.439 26.0116C264.277 26.0273 264.12 26.047 263.962 26.0666C263.638 26.1099 263.323 26.1532 263.007 26.2004C262.739 26.2397 262.467 26.283 262.199 26.3302C262.057 26.3499 261.918 26.3735 261.78 26.401C261.642 26.4246 261.5 26.4482 261.362 26.4758H261.358C258.71 26.9754 256.113 27.7195 253.603 28.6985H253.599V28.7024L252.964 28.9502C252.309 29.2177 251.659 29.501 251.015 29.8C250.869 29.8668 250.727 29.9377 250.581 30.0045C250.542 30.0242 250.498 30.0439 250.459 30.0675C250.044 30.2642 249.634 30.4688 249.228 30.6851C249.169 30.7127 249.11 30.7441 249.05 30.7756L248.672 30.9762C247.839 31.4247 247.021 31.9007 246.218 32.4043C246.151 32.4436 246.088 32.483 246.021 32.5262C245.95 32.5734 245.875 32.6206 245.804 32.6679C245.76 32.6915 245.717 32.7229 245.674 32.7505C245.551 32.8252 245.433 32.9039 245.315 32.9865C245.078 33.1399 244.841 33.2973 244.608 33.4586C244.368 33.6199 244.131 33.789 243.894 33.9582L243.658 34.1274L243.701 34.4185C243.741 34.6585 243.776 34.8984 243.82 35.1345C243.859 35.3705 243.898 35.6026 243.942 35.8347C244.009 36.2242 244.084 36.6097 244.159 36.9834C244.21 37.2313 244.257 37.4752 244.313 37.7152C244.364 37.963 244.419 38.2108 244.478 38.4587C244.593 38.9701 244.715 39.4658 244.845 39.9536C244.908 40.1975 244.975 40.4414 245.046 40.6814C245.086 40.827 245.125 40.9725 245.169 41.1141C245.2 41.2125 245.232 41.3108 245.263 41.4092C245.271 41.4407 245.279 41.4761 245.291 41.5115C245.3 41.5448 245.31 41.5776 245.323 41.6098C245.366 41.7554 245.409 41.897 245.453 42.0347C245.476 42.1094 245.5 42.1842 245.528 42.255C245.583 42.4242 245.642 42.5973 245.701 42.7625C245.764 42.9513 245.831 43.1401 245.898 43.325C245.914 43.3722 245.93 43.4155 245.946 43.4627C245.958 43.4981 245.969 43.5335 245.985 43.5689C246.001 43.6083 246.017 43.6516 246.033 43.6909C246.1 43.8679 246.167 44.0489 246.238 44.2259C246.261 44.2889 246.285 44.3557 246.313 44.4187C246.952 46.0213 247.738 47.5621 248.66 49.0215C247.638 48.1481 246.655 47.2223 245.709 46.2441C244.249 44.7315 242.904 43.1128 241.685 41.4013C241.587 41.2676 241.488 41.1299 241.397 40.9922C241.212 40.7286 241.031 40.465 240.853 40.1975C240.664 39.9221 240.482 39.635 240.305 39.3517C240.186 39.1629 240.068 38.9701 239.954 38.7813C239.839 38.6003 239.733 38.4233 239.63 38.2423L239.322 37.7152H239.318V37.7191L238.885 38.144C238.711 38.3131 238.537 38.4823 238.368 38.6514C233.066 43.9714 229.225 50.5623 227.216 57.7903L227.156 58.0067L227.097 58.2309C226.983 58.6322 226.869 59.0216 226.746 59.419V59.4229C226.628 59.8163 226.502 60.2097 226.368 60.5952C226.245 60.9611 226.119 61.323 225.985 61.685C225.941 61.8069 225.894 61.9289 225.843 62.0508C225.76 62.2869 225.669 62.519 225.579 62.755C225.535 62.8612 225.492 62.9714 225.448 63.0776C225.342 63.3372 225.235 63.5969 225.129 63.8526C225.113 63.8919 225.093 63.9352 225.074 63.9745C225.042 64.0532 225.007 64.1319 224.975 64.2066C224.892 64.3955 224.805 64.5882 224.723 64.7771C224.663 64.899 224.608 65.0249 224.553 65.1469C224.529 65.202 224.502 65.257 224.478 65.3121C224.332 65.6268 224.182 65.9376 224.024 66.2445C223.847 66.6064 223.665 66.9683 223.472 67.3224C223.302 67.6529 223.125 67.9754 222.939 68.298C222.62 68.8685 222.285 69.435 221.937 69.9857C221.803 70.1981 221.669 70.4106 221.531 70.623C221.5 70.6742 221.468 70.7253 221.436 70.7725C221.322 70.9574 221.204 71.1345 221.081 71.3154C220.999 71.4374 220.916 71.5593 220.833 71.6773C220.695 71.8898 220.549 72.0943 220.399 72.295C220.359 72.3579 220.316 72.4169 220.273 72.4759C220.052 72.7828 219.831 73.0818 219.606 73.3807C219.598 73.3847 219.598 73.3886 219.594 73.3925C219.586 73.3925 219.586 73.3965 219.582 73.4004C219.484 73.5302 219.385 73.6601 219.283 73.7859C219.148 73.9708 219.002 74.1518 218.857 74.3288C218.62 74.6278 218.371 74.9307 218.119 75.2258C218.111 75.2337 218.107 75.2415 218.099 75.2455C216.792 76.777 215.376 78.2126 213.862 79.5414C213.835 79.565 213.815 79.5886 213.787 79.6083C213.574 79.7932 213.361 79.9781 213.14 80.159C213.05 80.2338 212.959 80.3085 212.868 80.3833C212.718 80.5091 212.564 80.635 212.415 80.7491C212.397 80.7672 212.377 80.783 212.355 80.7963C212.221 80.9065 212.091 81.0088 211.957 81.111C211.795 81.2409 211.634 81.3628 211.468 81.4848C210.687 82.0749 209.885 82.6322 209.061 83.1567C208.939 83.2393 208.809 83.322 208.683 83.4006C208.608 83.4478 208.533 83.495 208.462 83.5344C208.162 83.7193 207.862 83.9002 207.562 84.0733C207.263 84.2504 206.955 84.4195 206.651 84.5848C206 84.9388 205.357 85.3086 204.73 85.6941C204.414 85.8908 204.099 86.0875 203.787 86.2882C202.549 87.0907 201.356 87.9496 200.209 88.8649C199.063 89.7808 197.963 90.7537 196.915 91.78C196.785 91.9059 196.655 92.0357 196.525 92.1695C196.264 92.4252 196.012 92.6848 195.771 92.9445C195.385 93.3418 195.014 93.751 194.647 94.164C192.712 96.353 191 98.7276 189.534 101.253C188.799 102.514 188.13 103.813 187.53 105.144C187.077 106.139 186.663 107.158 186.288 108.189C186.039 108.877 185.807 109.572 185.59 110.274C185.483 110.624 185.381 110.978 185.282 111.332C184.947 112.532 184.667 113.743 184.438 114.959C184.252 115.935 184.102 116.912 183.988 117.89C183.929 118.382 183.881 118.873 183.838 119.361C183.736 120.56 183.685 121.76 183.682 122.962C183.675 126.566 184.115 130.157 184.99 133.653C185.183 134.424 185.398 135.192 185.633 135.955C185.751 136.336 185.878 136.714 186.004 137.092C186.323 138.036 186.677 138.971 187.065 139.897C187.298 140.451 187.542 141.002 187.799 141.549C189.428 145.025 191.508 148.274 193.984 151.211C194.391 151.695 194.81 152.171 195.243 152.639C195.247 152.639 195.243 152.643 195.243 152.643C196.316 153.81 197.453 154.919 198.647 155.963H198.651C199.128 156.384 199.614 156.792 200.107 157.187C200.111 157.183 200.111 157.187 200.111 157.187C200.608 157.588 201.109 157.973 201.621 158.347C201.878 158.532 202.138 158.717 202.403 158.902C202.919 159.268 203.447 159.62 203.984 159.96H203.988C204.525 160.306 205.069 160.637 205.622 160.951C206.73 161.585 207.866 162.179 209.034 162.718L209.231 162.808L209.432 162.718C211.305 161.878 213.235 161.172 215.208 160.605C215.641 160.479 216.079 160.365 216.513 160.255C217.61 159.984 218.714 159.755 219.827 159.571C218.743 160.113 217.697 160.727 216.695 161.408C215.918 161.931 215.152 162.501 214.383 163.131C214.127 163.339 213.87 163.556 213.614 163.776L212.975 164.327L213.776 164.59C214.067 164.685 214.359 164.779 214.651 164.866C215.05 164.992 215.444 165.106 215.831 165.212C216.675 165.448 217.524 165.657 218.379 165.837C218.588 165.881 218.793 165.924 219.002 165.967C219.409 166.046 219.819 166.125 220.229 166.195C220.246 166.2 220.263 166.202 220.281 166.203C220.707 166.274 221.137 166.341 221.563 166.4C222.356 166.514 223.149 166.605 223.941 166.671C224.028 166.683 224.115 166.687 224.206 166.691C224.399 166.707 224.588 166.723 224.782 166.734C225.208 166.762 225.638 166.782 226.068 166.797C226.099 166.797 226.127 166.801 226.158 166.801C226.375 166.809 226.592 166.817 226.809 166.821C226.809 166.821 226.809 166.825 226.813 166.821C227.03 166.825 227.247 166.829 227.464 166.829H228.663C228.888 166.829 229.113 166.833 229.342 166.833C229.658 166.833 229.977 166.837 230.293 166.841C230.376 166.841 230.462 166.845 230.549 166.845C231.054 166.852 231.559 166.864 232.064 166.876C232.095 166.876 232.127 166.88 232.159 166.88C232.664 166.896 233.168 166.911 233.673 166.935C233.784 166.939 233.894 166.943 234.009 166.951C234.494 166.97 234.979 166.994 235.464 167.022C235.602 167.029 235.744 167.041 235.886 167.049C236.253 167.069 236.624 167.092 236.991 167.12C237.208 167.132 237.421 167.147 237.638 167.167C238.514 167.234 239.386 167.309 240.261 167.395C240.553 167.419 240.845 167.45 241.137 167.482C241.918 167.564 242.702 167.655 243.488 167.753C243.839 167.793 244.19 167.84 244.541 167.887C244.581 167.891 244.62 167.895 244.66 167.903C245.094 167.962 245.524 168.021 245.958 168.084C246.242 168.123 246.526 168.166 246.81 168.21C247.102 168.253 247.394 168.296 247.685 168.347C247.843 168.371 248.001 168.398 248.163 168.426C248.542 168.485 248.924 168.548 249.307 168.619C249.341 168.622 249.376 168.627 249.409 168.635C250.222 168.776 251.039 168.926 251.851 169.087C252.329 169.177 252.802 169.272 253.275 169.37C253.646 169.445 254.017 169.524 254.388 169.602C254.451 169.614 254.514 169.63 254.577 169.646C254.591 169.65 254.606 169.652 254.621 169.653C255.181 169.775 255.745 169.901 256.305 170.035C258.25 170.483 260.192 170.982 262.132 171.53C262.577 171.652 263.023 171.782 263.469 171.912C263.658 171.967 263.844 172.022 264.029 172.077C264.416 172.191 264.798 172.305 265.185 172.427C265.524 172.529 265.867 172.635 266.207 172.746C266.42 172.812 266.633 172.879 266.846 172.95C267.177 173.052 267.508 173.159 267.836 173.273C268.116 173.359 268.392 173.45 268.668 173.548C269.063 173.678 269.461 173.812 269.856 173.953C269.97 173.993 270.088 174.032 270.203 174.075C270.684 174.24 271.165 174.41 271.647 174.587C272.116 174.756 272.585 174.929 273.051 175.102C273.374 175.224 273.698 175.342 274.017 175.468C274.376 175.606 274.735 175.743 275.09 175.885C275.603 176.085 276.12 176.29 276.633 176.499C277.106 176.687 277.576 176.88 278.049 177.081C278.136 177.116 278.227 177.152 278.313 177.191C278.724 177.36 279.134 177.537 279.54 177.714C279.804 177.824 280.065 177.938 280.325 178.052C281.461 178.548 282.596 179.061 283.73 179.591H283.734C284.444 179.925 285.166 180.244 285.891 180.547C286.061 180.617 286.231 180.688 286.404 180.755C286.692 180.877 286.984 180.991 287.276 181.109C287.465 181.184 287.655 181.259 287.848 181.33C288.128 181.44 288.412 181.546 288.696 181.648C288.996 181.758 289.292 181.868 289.596 181.971C289.702 182.01 289.809 182.046 289.919 182.085C290.27 182.203 290.621 182.321 290.976 182.435C291.012 182.447 291.047 182.459 291.087 182.47C291.458 182.588 291.828 182.706 292.203 182.817C292.233 182.828 292.263 182.837 292.294 182.844C292.696 182.966 293.107 183.084 293.513 183.198C294.112 183.363 294.716 183.521 295.32 183.666C295.43 183.694 295.541 183.721 295.651 183.745C295.974 183.824 296.294 183.898 296.617 183.969C296.961 184.048 297.308 184.119 297.651 184.19C297.998 184.26 298.345 184.331 298.688 184.394C298.874 184.429 299.059 184.465 299.241 184.496L299.726 184.579C300.061 184.638 300.397 184.689 300.736 184.744C300.745 184.744 300.755 184.745 300.763 184.748C301.146 184.807 301.525 184.862 301.907 184.909C302.274 184.961 302.641 185.004 303.008 185.047C303.083 185.055 303.162 185.063 303.241 185.071C303.545 185.106 303.848 185.142 304.152 185.169C304.239 185.177 304.326 185.185 304.412 185.193C304.712 185.22 305.012 185.248 305.312 185.267C305.372 185.275 305.433 185.279 305.493 185.279C305.762 185.303 306.03 185.323 306.298 185.334C306.487 185.35 306.673 185.358 306.862 185.37C306.961 185.374 307.056 185.378 307.154 185.382C307.414 185.397 307.675 185.405 307.939 185.413C308.259 185.425 308.578 185.433 308.894 185.441C309.276 185.448 309.663 185.452 310.046 185.452H310.054C310.428 185.452 310.807 185.448 311.182 185.441H311.324L311.738 185.429C311.951 185.425 312.164 185.417 312.373 185.409C312.776 185.393 313.174 185.374 313.572 185.35C313.73 185.342 313.892 185.33 314.05 185.323C314.121 185.319 314.196 185.311 314.267 185.307C314.515 185.291 314.76 185.275 315.008 185.256C315.265 185.236 315.525 185.212 315.782 185.185C316.113 185.153 316.444 185.118 316.776 185.083C317.036 185.055 317.296 185.024 317.553 184.992C317.587 184.989 317.622 184.984 317.655 184.976C317.904 184.949 318.152 184.917 318.397 184.882C318.689 184.843 318.977 184.799 319.265 184.756C319.296 184.752 319.324 184.748 319.356 184.744C319.853 184.666 320.354 184.587 320.855 184.496C321.379 184.402 321.904 184.3 322.425 184.193C322.618 184.154 322.807 184.111 323.001 184.072C323.107 184.048 323.218 184.028 323.32 184.005C323.482 183.969 323.64 183.934 323.798 183.894C323.825 183.891 323.857 183.883 323.884 183.879C324.105 183.832 324.322 183.776 324.543 183.721C324.985 183.615 325.419 183.505 325.853 183.387C326.046 183.34 326.239 183.289 326.425 183.238C326.48 183.222 326.535 183.206 326.587 183.19C327.387 182.966 328.182 182.729 328.969 182.478C329.316 182.368 329.66 182.254 330.003 182.132C330.74 181.88 331.472 181.615 332.196 181.337C332.389 181.267 332.583 181.188 332.776 181.113C333.06 180.999 333.344 180.885 333.624 180.771C333.877 180.665 334.129 180.558 334.386 180.448C334.512 180.397 334.638 180.342 334.764 180.287C335.143 180.122 335.522 179.953 335.896 179.783C336.149 179.665 336.397 179.551 336.646 179.433C337.04 179.245 337.431 179.052 337.821 178.859C337.92 178.808 338.015 178.757 338.11 178.71C338.358 178.584 338.607 178.454 338.859 178.328C339.257 178.115 339.656 177.903 340.05 177.683C340.184 177.612 340.315 177.537 340.449 177.462C340.883 177.219 341.313 176.971 341.739 176.719C342.682 176.156 343.611 175.569 344.528 174.956C344.757 174.807 344.985 174.65 345.21 174.496C345.636 174.205 346.054 173.906 346.473 173.607C346.516 173.576 346.555 173.544 346.599 173.517C346.808 173.363 347.017 173.21 347.226 173.052C347.66 172.726 348.09 172.395 348.52 172.057C348.528 172.053 348.54 172.041 348.551 172.034C348.745 171.88 348.938 171.727 349.127 171.573C349.715 171.097 350.295 170.613 350.863 170.114C351.143 169.874 351.419 169.626 351.692 169.378C351.897 169.193 352.102 169.008 352.303 168.819C352.709 168.438 353.108 168.06 353.502 167.675C353.699 167.486 353.893 167.289 354.09 167.092C354.283 166.896 354.481 166.699 354.674 166.498C354.741 166.432 354.808 166.361 354.875 166.29C355.072 166.081 355.27 165.869 355.467 165.66C355.636 165.479 355.802 165.291 355.972 165.102C356.256 164.787 356.544 164.472 356.824 164.154C356.839 164.136 356.854 164.119 356.871 164.103C356.887 164.083 356.903 164.067 356.915 164.051H356.911C362.645 157.439 366.905 149.688 369.41 141.31C371.915 132.933 372.607 124.12 371.441 115.456C370.275 106.792 367.277 98.473 362.645 91.0507C358.014 83.6285 351.855 77.2718 344.575 72.4012L344.575 72.4012Z" fill="#415A77"/>
<g opacity="0.15">
<path opacity="0.15" d="M264.728 25.977C265.514 28.7939 266.697 31.4853 268.242 33.9708C265.656 31.7558 263.346 29.2399 261.361 26.4769C262.476 26.2665 263.598 26.0999 264.728 25.977Z" fill="black"/>
<path opacity="0.15" d="M226.235 69.5408C223.315 71.1299 220.586 73.0436 218.098 75.2452C222.298 70.2915 225.369 64.4859 227.095 58.2309C227.116 58.1558 227.137 58.0802 227.158 58.0049L227.216 57.792C229.291 50.3267 233.317 43.5449 238.883 38.1403L239.32 37.7152L239.629 38.2406C241.335 41.1336 243.377 43.8162 245.712 46.2331C242.134 56.3017 235.171 64.6816 226.235 69.5408Z" fill="black"/>
<path opacity="0.15" d="M246.799 42.7444L246.74 42.9573C246.72 43.0326 246.699 43.1083 246.678 43.1834C246.563 43.5974 246.44 44.0082 246.314 44.4173C245.066 41.1939 244.19 37.8394 243.702 34.4186L243.656 34.1283L243.895 33.9577C246.897 31.8067 250.157 30.0392 253.6 28.6967C250.509 32.9361 248.206 37.694 246.799 42.7444Z" fill="black"/>
<path opacity="0.15" d="M206.652 84.5884C209.236 83.178 211.655 81.485 213.863 79.5408C209.452 84.6624 206.29 90.7329 204.625 97.2769C202.96 103.821 202.837 110.66 204.266 117.26C205.695 123.859 208.637 130.038 212.861 135.314C217.086 140.59 222.478 144.818 228.615 147.669L228.814 147.76L229.013 147.671C232.328 146.177 235.823 145.119 239.411 144.522C237.172 145.66 235.084 147.073 233.197 148.729L232.559 149.279L233.36 149.543C234.051 149.771 234.742 149.98 235.414 150.166C239.362 151.263 243.444 151.807 247.542 151.784C266.162 151.666 284.927 155.959 303.315 164.544C306.468 166.014 309.739 167.22 313.093 168.148C327.711 172.207 343.316 170.747 356.922 164.048C349.251 172.895 339.221 179.39 327.997 182.779C316.772 186.169 304.814 186.313 293.511 183.196C290.156 182.267 286.886 181.062 283.732 179.592C265.344 171.006 246.58 166.713 227.959 166.832C223.861 166.855 219.779 166.31 215.831 165.214C215.16 165.028 214.468 164.818 213.777 164.59L212.977 164.327L213.615 163.776C215.501 162.12 217.589 160.707 219.828 159.57C216.24 160.166 212.745 161.225 209.43 162.718L209.231 162.808L209.032 162.716C201.662 159.295 195.39 153.899 190.917 147.131C186.443 140.362 183.943 132.487 183.696 124.384C183.45 116.281 185.465 108.269 189.519 101.242C193.572 94.2146 199.504 88.449 206.652 84.5884L206.652 84.5884Z" fill="black"/>
</g>
</g>
<defs>
<clipPath id="clip0_10_80">
<rect width="372" height="313" fill="white"/>
</clipPath>
</defs>
</svg>
